<svg width="25" height="45" viewBox="0 0 25 45" fill="none" xmlns="http://www.w3.org/2000/svg">
<path d="M15.4421 45H8.38844C7.21026 45 6.25185 44.0208 6.25185 42.8172V26.5629H2.1366C0.958412 26.5629 0 25.5834 0 24.38V17.415C0 16.2114 0.958412 15.2322 2.1366 15.2322H6.25185V11.7444C6.25185 8.28609 7.31477 5.34382 9.32535 3.23616C11.345 1.11889 14.1674 0 17.4876 0L22.8671 0.00892635C24.0432 0.0109863 25 0.990143 25 2.19177V8.6586C25 9.86229 24.0419 10.8414 22.864 10.8414L19.2421 10.8428C18.1375 10.8428 17.8562 11.0691 17.7961 11.1384C17.6969 11.2534 17.579 11.5786 17.579 12.4763V15.2319H22.5918C22.9692 15.2319 23.3348 15.327 23.649 15.5062C24.3269 15.8931 24.7483 16.6247 24.7483 17.4154L24.7456 24.3804C24.7456 25.5834 23.7872 26.5625 22.609 26.5625H17.579V42.8172C17.579 44.0208 16.6202 45 15.4421 45ZM8.83404 42.3619H14.9965V25.3819C14.9965 24.5781 15.6366 23.9244 16.423 23.9244H22.1634L22.1657 17.8703H16.4227C15.6363 17.8703 14.9965 17.2166 14.9965 16.4129V12.4763C14.9965 11.4457 15.099 10.2736 15.8604 9.39262C16.7805 8.32764 18.2306 8.20473 19.2414 8.20473L22.4178 8.20335V2.64633L17.4856 2.63809C12.1498 2.63809 8.83404 6.12762 8.83404 11.7444V16.4129C8.83404 17.2163 8.19421 17.8703 7.40785 17.8703H2.5822V23.9244H7.40785C8.19421 23.9244 8.83404 24.5781 8.83404 25.3819V42.3619ZM22.862 2.64702H22.8624H22.862Z" fill="#3378C7"/>
</svg>
