<svg width="45" height="45" viewBox="0 0 45 45" fill="none" xmlns="http://www.w3.org/2000/svg">
<path d="M22.5079 10.9453C16.1273 10.9453 10.9617 16.1166 10.9617 22.4916C10.9617 28.8722 16.1329 34.0378 22.5079 34.0378C28.8885 34.0378 34.0542 28.8666 34.0542 22.4916C34.0542 16.1109 28.8829 10.9453 22.5079 10.9453ZM22.5079 29.9859C18.366 29.9859 15.0135 26.6316 15.0135 22.4916C15.0135 18.3516 18.3679 14.9972 22.5079 14.9972C26.6479 14.9972 30.0023 18.3516 30.0023 22.4916C30.0042 26.6316 26.6498 29.9859 22.5079 29.9859Z" fill="#0558AD" fill-opacity="0.8"/>
<path d="M31.7779 0.14135C27.6379 -0.051775 17.3836 -0.0424 13.2398 0.14135C9.59855 0.311975 6.38668 1.19135 3.7973 3.78073C-0.530199 8.10823 0.0229261 13.9395 0.0229261 22.4914C0.0229261 31.2439 -0.464574 36.9401 3.7973 41.202C8.14168 45.5445 14.0573 44.9764 22.5079 44.9764C31.1779 44.9764 34.1704 44.982 37.2361 43.7951C41.4042 42.177 44.5504 38.4514 44.8579 31.7595C45.0529 27.6176 45.0417 17.3651 44.8579 13.2214C44.4867 5.32198 40.2473 0.53135 31.7779 0.14135ZM38.3311 38.3389C35.4942 41.1757 31.5586 40.9226 22.4536 40.9226C13.0786 40.9226 9.31918 41.0614 6.57605 38.3107C3.41668 35.1664 3.98855 30.117 3.98855 22.4614C3.98855 12.102 2.92543 4.64135 13.3223 4.10885C15.7111 4.02448 16.4142 3.99635 22.4273 3.99635L22.5117 4.0526C32.5036 4.0526 40.3429 3.00635 40.8136 13.4014C40.9204 15.7732 40.9448 16.4857 40.9448 22.4895C40.9429 31.7557 41.1192 35.5376 38.3311 38.3389Z" fill="#0558AD" fill-opacity="0.8"/>
<path d="M34.5117 13.1878C36.0018 13.1878 37.2098 11.9798 37.2098 10.4896C37.2098 8.9995 36.0018 7.7915 34.5117 7.7915C33.0215 7.7915 31.8135 8.9995 31.8135 10.4896C31.8135 11.9798 33.0215 13.1878 34.5117 13.1878Z" fill="#0558AD" fill-opacity="0.8"/>
</svg>
