<svg width="52" height="45" viewBox="0 0 52 45" fill="none" xmlns="http://www.w3.org/2000/svg">
<path d="M19.5686 45C10.9851 45 4.20107 43.4107 0.955395 40.6403L0.892224 40.5863L0.834938 40.5255C0.0639337 39.708 -0.188751 38.6355 0.142408 37.5835L0.17262 37.4961C0.574405 36.4312 1.55886 35.7142 2.62571 35.7076C4.8214 35.6673 6.74244 35.3899 8.48573 34.8514C5.70501 33.4808 3.77339 31.1075 2.62414 27.6727C2.23766 26.6015 2.57117 25.4138 3.46184 24.7057C3.68157 24.5306 3.92994 24.3984 4.19283 24.3098C2.64768 22.4194 1.50628 20.2682 0.867112 17.9931L0.847101 17.9224L0.833368 17.8501C0.616389 16.6995 1.10175 15.5164 1.99125 15.007C2.36439 14.7799 2.76971 14.6622 3.17659 14.6523C2.73792 13.6509 2.41893 12.6229 2.22981 11.5888C1.70482 8.72277 2.13799 5.84971 3.51678 3.04943L3.83577 2.37327C4.0912 1.83226 4.57931 1.45218 5.14197 1.35529C5.70462 1.25882 6.2814 1.45593 6.68437 1.883L7.26546 2.49969C11.8562 7.60041 15.9682 10.0206 23.0775 11.6765C23.3949 8.78431 24.5748 6.09589 26.4782 3.98009C28.7433 1.46258 31.7681 0.0499636 34.9953 0.00172593H35.0165C37.3711 0.00172593 40.2919 1.4264 42.0583 2.43108C43.5737 1.90545 45.3994 1.09165 47.2937 0.231271C48.1801 -0.209522 49.2728 -0.00783855 49.9697 0.730697C50.6528 1.45468 50.8423 2.47557 50.4797 3.46777C50.342 3.87405 50.1859 4.27284 50.012 4.6629C50.2714 4.7889 50.5088 4.95981 50.7093 5.17231C51.3155 5.81478 51.5682 6.82029 51.3528 7.73431L51.3296 7.82122C50.6037 10.3005 49.2093 12.3198 47.3651 13.5873C47.0571 30.9699 34.7061 45 19.5686 45ZM3.84754 38.8601C6.90605 40.694 12.7347 41.8034 19.5686 41.8034C26.1388 41.8034 32.339 38.8139 37.0266 33.3855C41.7527 27.9126 44.3553 20.645 44.3553 12.9211V12.8342C44.3553 12.1348 44.7186 11.4964 45.3032 11.1679C46.4894 10.5022 47.4499 9.36815 48.0745 7.91811C47.4303 8.02582 46.7754 7.75178 46.374 7.18041C45.9075 6.51631 45.9024 5.61934 46.3611 4.94942C46.6086 4.58763 46.8331 4.2113 47.0332 3.82207C45.3974 4.55021 43.844 5.20308 42.4954 5.6368C42.0054 5.79399 41.4592 5.73245 41.0115 5.46755C38.6106 4.04995 36.3745 3.20246 35.0263 3.1983C30.0515 3.27898 26.0066 7.79461 26.0066 13.2696C26.0066 13.8355 25.7696 14.3662 25.3572 14.7259C24.9444 15.0852 24.4076 15.229 23.8834 15.1193C15.6861 13.4076 10.8286 10.8411 5.77721 5.46132C5.05329 7.29975 4.85554 9.1515 5.19023 10.98C5.52963 12.8321 6.43247 14.688 7.80144 16.3468C8.32172 16.9764 8.39078 17.8771 7.9733 18.5878C7.55739 19.296 6.76676 19.627 6.00675 19.4112C5.4127 19.2423 4.86652 19.0207 4.3486 18.7358C5.40368 21.1648 7.21838 23.4111 9.49961 25.0679C10.1608 25.5482 10.437 26.4435 10.1717 27.2452C9.9061 28.0482 9.16414 28.5651 8.36213 28.5019C7.48833 28.4333 6.71419 28.2574 6.00165 27.9609C7.28077 30.7216 9.32461 32.2407 12.4734 32.8212C13.2232 32.9597 13.807 33.5872 13.9263 34.3827C14.046 35.1782 13.6744 35.9667 13.0023 36.3447C10.3185 37.8525 7.38514 38.6617 3.84754 38.8601Z" fill="#3378C7"/>
</svg>
